<?xml version="1.0" encoding="UTF-8"?>
<svg version="1.1" xmlns="http://www.w3.org/2000/svg" width="16" height="16">
<path d="M0 0 C3.5625 0.375 3.5625 0.375 5.625 1.9375 C7.01395556 5.54878445 5.87304898 7.83651774 4.5625 11.375 C4.2325 12.035 3.9025 12.695 3.5625 13.375 C5.2125 13.705 6.8625 14.035 8.5625 14.375 C8.5625 15.035 8.5625 15.695 8.5625 16.375 C3.2825 16.375 -1.9975 16.375 -7.4375 16.375 C-7.4375 15.715 -7.4375 15.055 -7.4375 14.375 C-6.1175 14.045 -4.7975 13.715 -3.4375 13.375 C-3.7675 12.859375 -4.0975 12.34375 -4.4375 11.8125 C-5.78042714 8.5391151 -5.69702656 5.87860855 -5.4375 2.375 C-3.4375 0.375 -3.4375 0.375 0 0 Z M-0.4375 5.375 C3.5625 6.375 3.5625 6.375 3.5625 6.375 Z M1.5625 9.375 C1.8925 10.035 2.2225 10.695 2.5625 11.375 C2.8925 10.715 3.2225 10.055 3.5625 9.375 C2.9025 9.375 2.2425 9.375 1.5625 9.375 Z " fill="#6E6E6E" transform="translate(7.4375,-0.375)"/>
</svg>
